# 3ds Max Wavefront OBJ Exporter v0.97b - (c)2007 guruware
# File Created: 09.08.2017 22:03:01

mtllib folder_low_poly.mtl

#
# object low_poly
#

v  -3.9919 31.9757 13.1215
v  23.1167 0.0000 13.1215
v  23.1167 31.9757 13.1215
v  -3.9919 0.0000 13.1215
v  -4.3812 31.9757 13.0659
v  -4.3812 0.0000 13.0659
v  -4.5664 31.9757 12.8149
v  -4.5664 0.0000 12.8149
v  -4.8262 31.9757 12.6209
v  -4.8262 0.0000 12.6209
v  -4.8819 31.9757 12.2315
v  -4.8819 0.0000 12.2315
v  -3.9919 31.9757 5.6215
v  23.1190 31.9757 5.6215
v  -3.9919 0.0000 5.6215
v  23.1190 0.0000 5.6215
v  -4.3812 31.9757 5.6771
v  -4.3812 0.0000 5.6771
v  -4.5664 0.0000 5.9281
v  -4.5664 31.9757 5.9281
v  -4.8262 0.0000 6.1221
v  -4.8262 31.9757 6.1221
v  -4.8819 31.9757 6.5115
v  -4.8819 0.0000 6.5115
v  -4.8817 10.1964 10.1826
v  -4.8817 9.6777 10.8330
v  -4.8818 10.3806 9.3715
v  -4.8819 31.9757 9.3715
v  -4.8817 6.8279 8.5604
v  -4.8817 7.3466 7.9100
v  -4.8819 0.0000 9.3715
v  -4.8818 6.6440 9.3715
v  -4.8817 10.1964 8.5604
v  -4.8817 6.8279 10.1826
v  -4.8817 8.9281 11.1940
v  -4.8817 7.3466 10.8330
v  -4.8817 8.0962 11.1940
v  -4.8817 9.6777 7.9100
v  -4.8817 8.9281 7.5491
v  -4.8817 8.0962 7.5491
v  23.1167 31.9757 12.7915
v  23.1167 0.0000 12.7915
v  -3.9684 31.9757 12.7915
v  -3.9684 0.0000 12.7915
v  -4.1977 31.9757 12.7588
v  -4.1977 0.0000 12.7588
v  -4.3298 31.9757 12.5797
v  -4.3298 0.0000 12.5797
v  -4.5189 31.9757 12.4385
v  -4.5189 0.0000 12.4385
v  -4.5519 31.9757 12.2081
v  -4.5519 -0.0000 12.2081
v  23.1190 31.9757 5.9515
v  -3.9684 31.9757 5.9515
v  -3.9684 0.0000 5.9515
v  23.1190 0.0000 5.9515
v  -4.1977 31.9757 5.9843
v  -4.1977 0.0000 5.9843
v  -4.3298 31.9757 6.1634
v  -4.3298 0.0000 6.1634
v  -4.5189 31.9757 6.3045
v  -4.5189 0.0000 6.3045
v  -4.5519 31.9757 6.5350
v  -4.5519 -0.0000 6.5350
v  -4.5541 9.7143 10.8790
v  -4.5541 10.2493 10.2081
v  -4.5541 10.4398 9.3715
v  -4.5519 31.9757 9.3715
v  -4.5541 7.3100 7.8641
v  -4.5541 6.7750 8.5350
v  -4.5519 -0.0000 9.3715
v  -4.5541 6.5847 9.3715
v  -4.5541 10.2493 8.5350
v  -4.5541 6.7750 10.2081
v  -4.5541 8.9412 11.2513
v  -4.5541 7.3100 10.8790
v  -4.5541 8.0831 11.2513
v  -4.5541 9.7143 7.8641
v  -4.5541 8.9412 7.4917
v  -4.5541 8.0831 7.4917
v  -4.8665 9.8864 10.0333
v  -4.4639 10.0375 9.3715
v  -4.4639 9.8864 10.0333
v  -4.8665 10.0375 9.3715
v  -4.9780 10.3299 9.3715
v  -4.9780 10.1499 10.1602
v  -4.9962 10.1724 9.3715
v  -4.9962 10.0080 10.0919
v  -4.8665 9.4632 10.5641
v  -4.4639 9.4632 10.5641
v  -4.9780 9.6455 10.7927
v  -4.9962 9.5473 10.6695
v  -4.4639 8.8516 10.8586
v  -4.8665 8.8516 10.8586
v  -4.9780 8.9166 11.1437
v  -4.9962 8.8816 10.9901
v  -4.4639 8.1727 10.8586
v  -4.8665 8.1727 10.8586
v  -4.9780 8.1077 11.1437
v  -4.9962 8.1427 10.9901
v  -4.4639 7.5611 10.5641
v  -4.8665 7.5611 10.5641
v  -4.9780 7.3788 10.7927
v  -4.9962 7.4770 10.6695
v  -4.8665 7.1379 10.0333
v  -4.4639 7.1379 10.0333
v  -4.9780 6.8744 10.1602
v  -4.9962 7.0163 10.0919
v  -4.8665 6.9868 9.3715
v  -4.4639 6.9868 9.3715
v  -4.9780 6.6944 9.3715
v  -4.9962 6.8519 9.3715
v  -4.4639 7.1379 8.7097
v  -4.8665 7.1379 8.7097
v  -4.9780 6.8744 8.5828
v  -4.9962 7.0163 8.6512
v  -4.4639 7.5611 8.1790
v  -4.8665 7.5611 8.1790
v  -4.9780 7.3788 7.9504
v  -4.9962 7.4770 8.0735
v  -4.4639 8.1727 7.8844
v  -4.8665 8.1727 7.8844
v  -4.9780 8.1077 7.5994
v  -4.9962 8.1427 7.7529
v  -4.4639 8.8516 7.8844
v  -4.8665 8.8516 7.8844
v  -4.9780 8.9166 7.5994
v  -4.9962 8.8816 7.7529
v  -4.4639 9.4632 8.1790
v  -4.8665 9.4632 8.1790
v  -4.9780 9.6455 7.9504
v  -4.9962 9.5473 8.0735
v  -4.8665 9.8864 8.7097
v  -4.4639 9.8864 8.7097
v  -4.9780 10.1499 8.5828
v  -4.9962 10.0080 8.6512
v  -4.4367 10.0935 10.1330
v  -4.4367 10.2673 9.3715
v  -4.4367 9.6064 10.7437
v  -4.4367 8.9027 11.0826
v  -4.4367 8.1216 11.0826
v  -4.4367 7.4178 10.7437
v  -4.4367 6.9308 10.1330
v  -4.4367 6.7570 9.3715
v  -4.4367 6.9308 8.6100
v  -4.4367 7.4178 7.9993
v  -4.4367 8.1216 7.6604
v  -4.4367 8.9027 7.6604
v  -4.4367 9.6064 7.9993
v  -4.4367 10.0935 8.6100
# 150 vertices

vn -0.0709 0.0000 0.9975
vn 0.7071 0.0000 0.7071
vn -0.5129 0.0000 0.8584
vn -0.7091 0.0000 0.7051
vn -0.8599 0.0000 0.5104
vn -0.9975 -0.0000 0.0709
vn -0.9975 0.0000 0.0709
vn -0.0709 0.0000 -0.9975
vn 0.7071 0.0000 -0.7071
vn -0.5129 0.0000 -0.8584
vn -0.7091 0.0000 -0.7051
vn -0.8599 0.0000 -0.5104
vn -0.9975 -0.0000 -0.0709
vn -0.9975 0.0000 -0.0709
vn -1.0000 -0.0000 0.0000
vn -1.0000 -0.0000 -0.0000
vn -1.0000 0.0000 -0.0000
vn -1.0000 0.0000 0.0000
vn -1.0000 -0.0000 -0.0001
vn -1.0000 0.0000 -0.0001
vn -1.0000 -0.0000 0.0001
vn -1.0000 0.0000 0.0001
vn 0.0000 0.0000 -1.0000
vn 0.0709 0.0000 -0.9975
vn 0.5129 0.0000 -0.8584
vn 0.7091 0.0000 -0.7051
vn 0.8599 -0.0000 -0.5104
vn 0.9975 -0.0000 -0.0709
vn 0.9975 0.0001 -0.0710
vn 0.0000 0.0000 1.0000
vn 0.0709 0.0000 0.9975
vn 0.5129 0.0000 0.8584
vn 0.7091 0.0000 0.7051
vn 0.8599 -0.0000 0.5104
vn 0.9975 -0.0000 0.0709
vn 0.9975 0.0001 0.0710
vn 1.0000 -0.0001 -0.0002
vn 1.0000 -0.0001 -0.0001
vn 1.0000 -0.0001 0.0000
vn 1.0000 0.0002 0.0004
vn 1.0000 0.0003 0.0001
vn 1.0000 0.0003 -0.0000
vn 1.0000 -0.0001 0.0001
vn 1.0000 0.0003 -0.0001
vn 1.0000 -0.0000 -0.0020
vn 1.0000 0.0002 -0.0004
vn 1.0000 0.0000 -0.0020
vn 1.0000 -0.0001 0.0002
vn 1.0000 -0.0000 0.0020
vn 1.0000 0.0000 0.0020
vn 1.0000 0.0000 -0.0000
vn 0.0000 1.0000 -0.0000
vn 0.0000 -1.0000 -0.0000
vn -0.0000 1.0000 0.0000
vn -0.0000 -1.0000 0.0000
vn -0.0000 -1.0000 -0.0000
vn -0.0000 1.0000 -0.0000
vn -0.4134 -0.8204 -0.3951
vn 0.7149 -0.6992 -0.0000
vn 0.7149 -0.6300 -0.3034
vn -0.4134 -0.9106 -0.0000
vn -0.7959 0.6054 -0.0000
vn -0.7964 0.5450 0.2622
vn -0.4694 0.8830 0.0000
vn -0.4710 0.7949 0.3824
vn -0.9648 -0.2629 -0.0000
vn -0.9648 -0.2369 -0.1141
vn -0.4134 -0.5677 -0.7119
vn 0.7149 -0.4360 -0.5467
vn -0.7970 0.3766 0.4722
vn -0.4725 0.5495 0.6891
vn -0.9648 -0.1639 -0.2056
vn 0.7149 -0.1556 -0.6817
vn -0.4134 -0.2026 -0.8877
vn -0.4725 0.1961 0.8592
vn -0.7970 0.1344 0.5889
vn -0.9648 -0.0585 -0.2563
vn 0.7149 0.1556 -0.6817
vn -0.4134 0.2026 -0.8877
vn -0.7970 -0.1344 0.5889
vn -0.4725 -0.1961 0.8592
vn -0.9648 0.0585 -0.2563
vn 0.7149 0.4360 -0.5467
vn -0.4134 0.5677 -0.7119
vn -0.7970 -0.3766 0.4722
vn -0.4726 -0.5495 0.6890
vn -0.9648 0.1639 -0.2056
vn -0.4134 0.8204 -0.3951
vn 0.7149 0.6300 -0.3034
vn -0.4705 -0.7952 0.3824
vn -0.7962 -0.5452 0.2622
vn -0.9648 0.2369 -0.1141
vn -0.4134 0.9106 -0.0000
vn 0.7149 0.6992 -0.0000
vn -0.4684 -0.8835 -0.0000
vn -0.7956 -0.6059 0.0000
vn -0.9648 0.2629 -0.0000
vn 0.7149 0.6300 0.3034
vn -0.4134 0.8204 0.3951
vn -0.7962 -0.5452 -0.2622
vn -0.4705 -0.7952 -0.3824
vn -0.9648 0.2369 0.1141
vn 0.7149 0.4360 0.5467
vn -0.4134 0.5677 0.7119
vn -0.7970 -0.3766 -0.4722
vn -0.4726 -0.5495 -0.6890
vn -0.9648 0.1639 0.2056
vn 0.7149 0.1556 0.6817
vn -0.4134 0.2026 0.8877
vn -0.4725 -0.1961 -0.8592
vn -0.7970 -0.1344 -0.5889
vn -0.9648 0.0585 0.2563
vn 0.7149 -0.1556 0.6817
vn -0.4134 -0.2026 0.8877
vn -0.4725 0.1961 -0.8592
vn -0.7970 0.1344 -0.5889
vn -0.9648 -0.0585 0.2563
vn 0.7149 -0.4360 0.5467
vn -0.4134 -0.5677 0.7119
vn -0.4725 0.5495 -0.6891
vn -0.7970 0.3766 -0.4722
vn -0.9648 -0.1639 0.2056
vn -0.4134 -0.8204 0.3951
vn 0.7149 -0.6300 0.3034
vn -0.4710 0.7949 -0.3824
vn -0.7964 0.5450 -0.2622
vn -0.9648 -0.2369 0.1141
vn 0.9591 0.2550 0.1227
vn 0.9591 0.2832 0.0000
vn 0.9592 0.1763 0.2211
vn 0.9592 0.0629 0.2757
vn 0.9592 -0.0629 0.2757
vn 0.9592 -0.1763 0.2211
vn 0.9591 -0.2551 0.1227
vn 0.9590 -0.2833 0.0000
vn 0.9591 -0.2551 -0.1227
vn 0.9592 -0.1763 -0.2211
vn 0.9592 -0.0629 -0.2757
vn 0.9592 0.0629 -0.2757
vn 0.9592 0.1763 -0.2211
vn 0.9591 0.2550 -0.1227
vn 0.8272 0.5619 0.0000
vn 0.8274 0.5060 0.2435
vn 0.8276 0.3500 0.4388
vn 0.8276 0.1249 0.5472
vn 0.8276 -0.1249 0.5472
vn 0.8276 -0.3500 0.4388
vn 0.8274 -0.5061 0.2435
vn 0.8271 -0.5621 0.0000
vn 0.8274 -0.5061 -0.2435
vn 0.8276 -0.3500 -0.4388
vn 0.8276 -0.1249 -0.5472
vn 0.8276 0.1249 -0.5472
vn 0.8276 0.3500 -0.4388
vn 0.8274 0.5060 -0.2435
# 155 vertex normals

vt 0.4748 0.4063 0.0000
vt 0.0056 0.0131 0.0000
vt 0.4725 0.0104 0.0000
vt 0.0078 0.4089 0.0000
vt 0.4748 0.4122 0.0000
vt 0.0079 0.4145 0.0000
vt 0.4748 0.4168 0.0000
vt 0.0079 0.4190 0.0000
vt 0.4749 0.4217 0.0000
vt 0.0079 0.4236 0.0000
vt 0.4749 0.4275 0.0000
vt 0.0079 0.4293 0.0000
vt 0.4752 0.5324 0.0000
vt 0.4756 0.9284 0.0000
vt 0.0083 0.5330 0.0000
vt 0.0087 0.9288 0.0000
vt 0.4752 0.5266 0.0000
vt 0.0083 0.5274 0.0000
vt 0.0083 0.5229 0.0000
vt 0.4752 0.5219 0.0000
vt 0.0082 0.5183 0.0000
vt 0.4752 0.5171 0.0000
vt 0.4752 0.5112 0.0000
vt 0.0082 0.5126 0.0000
vt 0.1569 0.4586 0.0000
vt 0.1493 0.4491 0.0000
vt 0.1597 0.4704 0.0000
vt 0.4750 0.4694 0.0000
vt 0.1078 0.4824 0.0000
vt 0.1155 0.4919 0.0000
vt 0.0081 0.4709 0.0000
vt 0.1051 0.4706 0.0000
vt 0.1570 0.4823 0.0000
vt 0.1078 0.4588 0.0000
vt 0.1384 0.4439 0.0000
vt 0.1153 0.4493 0.0000
vt 0.1262 0.4440 0.0000
vt 0.1495 0.4918 0.0000
vt 0.1386 0.4971 0.0000
vt 0.1264 0.4971 0.0000
vt 0.9733 0.9898 0.0000
vt 0.5064 0.9907 0.0000
vt 0.9726 0.5943 0.0000
vt 0.5056 0.5952 0.0000
vt 0.9726 0.5909 0.0000
vt 0.5056 0.5918 0.0000
vt 0.9726 0.5876 0.0000
vt 0.5056 0.5886 0.0000
vt 0.9726 0.5841 0.0000
vt 0.5056 0.5852 0.0000
vt 0.9726 0.5806 0.0000
vt 0.5056 0.5819 0.0000
vt 0.9711 0.0886 0.0000
vt 0.9724 0.4842 0.0000
vt 0.5054 0.4857 0.0000
vt 0.5042 0.0901 0.0000
vt 0.9724 0.4876 0.0000
vt 0.5054 0.4890 0.0000
vt 0.9724 0.4909 0.0000
vt 0.5054 0.4923 0.0000
vt 0.9724 0.4943 0.0000
vt 0.5054 0.4957 0.0000
vt 0.9724 0.4977 0.0000
vt 0.5054 0.4991 0.0000
vt 0.6474 0.5622 0.0000
vt 0.6552 0.5523 0.0000
vt 0.6580 0.5401 0.0000
vt 0.9725 0.5391 0.0000
vt 0.6122 0.5182 0.0000
vt 0.6044 0.5280 0.0000
vt 0.5055 0.5405 0.0000
vt 0.6017 0.5403 0.0000
vt 0.6552 0.5279 0.0000
vt 0.6045 0.5525 0.0000
vt 0.6362 0.5676 0.0000
vt 0.6123 0.5622 0.0000
vt 0.6236 0.5676 0.0000
vt 0.6473 0.5181 0.0000
vt 0.6360 0.5127 0.0000
vt 0.6235 0.5127 0.0000
vt 0.0055 0.0083 0.0000
vt 0.4725 0.0055 0.0000
vt 0.9911 0.4012 0.0000
vt 0.9861 0.0055 0.0000
vt 0.9911 0.0055 0.0000
vt 0.9861 0.4012 0.0000
vt 0.4875 0.9892 0.0000
vt 0.4875 0.5935 0.0000
vt 0.4925 0.5935 0.0000
vt 0.4925 0.9892 0.0000
vt 0.9911 0.4058 0.0000
vt 0.9861 0.4058 0.0000
vt 0.4925 0.5889 0.0000
vt 0.4875 0.5889 0.0000
vt 0.9861 0.4097 0.0000
vt 0.9911 0.4097 0.0000
vt 0.4875 0.5850 0.0000
vt 0.4925 0.5850 0.0000
vt 0.9911 0.4138 0.0000
vt 0.9861 0.4138 0.0000
vt 0.4925 0.5809 0.0000
vt 0.4875 0.5809 0.0000
vt 0.4875 0.5764 0.0000
vt 0.4925 0.5764 0.0000
vt 0.9861 0.4184 0.0000
vt 0.9911 0.4184 0.0000
vt 0.4757 0.9332 0.0000
vt 0.0087 0.9336 0.0000
vt 0.4925 0.4761 0.0000
vt 0.4875 0.0803 0.0000
vt 0.4925 0.0803 0.0000
vt 0.4875 0.4761 0.0000
vt 0.9861 0.9144 0.0000
vt 0.9861 0.5187 0.0000
vt 0.9911 0.5187 0.0000
vt 0.9911 0.9144 0.0000
vt 0.9911 0.5141 0.0000
vt 0.9861 0.5141 0.0000
vt 0.4925 0.4806 0.0000
vt 0.4875 0.4806 0.0000
vt 0.4875 0.4845 0.0000
vt 0.4925 0.4845 0.0000
vt 0.9861 0.5102 0.0000
vt 0.9911 0.5102 0.0000
vt 0.4925 0.4886 0.0000
vt 0.4875 0.4886 0.0000
vt 0.9911 0.5061 0.0000
vt 0.9861 0.5061 0.0000
vt 0.9861 0.5015 0.0000
vt 0.9911 0.5015 0.0000
vt 0.4875 0.4932 0.0000
vt 0.4925 0.4932 0.0000
vt 0.9911 0.4600 0.0000
vt 0.9861 0.4600 0.0000
vt 0.4925 0.5348 0.0000
vt 0.4875 0.5348 0.0000
vt 0.4960 0.0178 0.0000
vt 0.4848 0.0120 0.0000
vt 0.4960 0.0120 0.0000
vt 0.4848 0.0178 0.0000
vt 0.4848 0.0229 0.0000
vt 0.4960 0.0229 0.0000
vt 0.4848 0.0245 0.0000
vt 0.4960 0.0245 0.0000
vt 0.4848 0.0206 0.0000
vt 0.4960 0.0206 0.0000
vt 0.5072 0.0178 0.0000
vt 0.5072 0.0120 0.0000
vt 0.5072 0.0229 0.0000
vt 0.5072 0.0245 0.0000
vt 0.5072 0.0206 0.0000
vt 0.5184 0.0120 0.0000
vt 0.5184 0.0178 0.0000
vt 0.5184 0.0245 0.0000
vt 0.5184 0.0229 0.0000
vt 0.5184 0.0206 0.0000
vt 0.5296 0.0120 0.0000
vt 0.5296 0.0178 0.0000
vt 0.5296 0.0229 0.0000
vt 0.5296 0.0245 0.0000
vt 0.5296 0.0206 0.0000
vt 0.5408 0.0120 0.0000
vt 0.5408 0.0178 0.0000
vt 0.5408 0.0229 0.0000
vt 0.5408 0.0245 0.0000
vt 0.5408 0.0206 0.0000
vt 0.5521 0.0178 0.0000
vt 0.5521 0.0120 0.0000
vt 0.5521 0.0245 0.0000
vt 0.5521 0.0229 0.0000
vt 0.5521 0.0206 0.0000
vt 0.5633 0.0178 0.0000
vt 0.5633 0.0120 0.0000
vt 0.5633 0.0245 0.0000
vt 0.5633 0.0229 0.0000
vt 0.5633 0.0206 0.0000
vt 0.5745 0.0120 0.0000
vt 0.5745 0.0178 0.0000
vt 0.5745 0.0229 0.0000
vt 0.5745 0.0245 0.0000
vt 0.5745 0.0206 0.0000
vt 0.5857 0.0120 0.0000
vt 0.5857 0.0178 0.0000
vt 0.5857 0.0229 0.0000
vt 0.5857 0.0245 0.0000
vt 0.5857 0.0206 0.0000
vt 0.5969 0.0120 0.0000
vt 0.5969 0.0178 0.0000
vt 0.5969 0.0245 0.0000
vt 0.5969 0.0229 0.0000
vt 0.5969 0.0206 0.0000
vt 0.6081 0.0120 0.0000
vt 0.6081 0.0178 0.0000
vt 0.6081 0.0245 0.0000
vt 0.6081 0.0229 0.0000
vt 0.6081 0.0206 0.0000
vt 0.6194 0.0120 0.0000
vt 0.6194 0.0178 0.0000
vt 0.6194 0.0245 0.0000
vt 0.6194 0.0229 0.0000
vt 0.6194 0.0206 0.0000
vt 0.6306 0.0178 0.0000
vt 0.6306 0.0120 0.0000
vt 0.6306 0.0245 0.0000
vt 0.6306 0.0229 0.0000
vt 0.6306 0.0206 0.0000
vt 0.6418 0.0178 0.0000
vt 0.6418 0.0120 0.0000
vt 0.6418 0.0245 0.0000
vt 0.6418 0.0229 0.0000
vt 0.6418 0.0206 0.0000
vt 0.4960 0.0086 0.0000
vt 0.4848 0.0086 0.0000
vt 0.5072 0.0086 0.0000
vt 0.5184 0.0086 0.0000
vt 0.5296 0.0086 0.0000
vt 0.5408 0.0086 0.0000
vt 0.5521 0.0086 0.0000
vt 0.5633 0.0086 0.0000
vt 0.5745 0.0086 0.0000
vt 0.5857 0.0086 0.0000
vt 0.5969 0.0086 0.0000
vt 0.6081 0.0086 0.0000
vt 0.6194 0.0086 0.0000
vt 0.6306 0.0086 0.0000
vt 0.6418 0.0086 0.0000
vt 0.4848 0.0055 0.0000
vt 0.4960 0.0055 0.0000
vt 0.5072 0.0055 0.0000
vt 0.5184 0.0055 0.0000
vt 0.5296 0.0055 0.0000
vt 0.5408 0.0055 0.0000
vt 0.5521 0.0055 0.0000
vt 0.5633 0.0055 0.0000
vt 0.5745 0.0055 0.0000
vt 0.5857 0.0055 0.0000
vt 0.5969 0.0055 0.0000
vt 0.6081 0.0055 0.0000
vt 0.6194 0.0055 0.0000
vt 0.6306 0.0055 0.0000
vt 0.6418 0.0055 0.0000
# 241 texture coords

g low_poly
usemtl wire_029029029
s off
f 1/1/1 2/2/2 3/3/2 
f 2/2/2 1/1/1 4/4/1 
f 5/5/3 4/4/1 1/1/1 
f 4/4/1 5/5/3 6/6/3 
f 7/7/4 6/6/3 5/5/3 
f 6/6/3 7/7/4 8/8/4 
f 9/9/5 8/8/4 7/7/4 
f 8/8/4 9/9/5 10/10/5 
f 11/11/6 12/12/7 9/9/5 
f 9/9/5 12/12/7 10/10/5 
f 13/13/8 14/14/9 15/15/8 
f 14/14/9 16/16/9 15/15/8 
f 13/13/8 15/15/8 17/17/10 
f 17/17/10 15/15/8 18/18/10 
f 19/19/11 20/20/11 17/17/10 
f 17/17/10 18/18/10 19/19/11 
f 21/21/12 22/22/12 20/20/11 
f 20/20/11 19/19/11 21/21/12 
f 21/21/12 23/23/13 22/22/12 
f 23/23/13 21/21/12 24/24/14 
f 11/11/6 25/25/15 26/26/16 
f 11/11/6 27/27/16 25/25/15 
f 27/27/16 11/11/6 28/28/16 
f 24/24/14 29/29/17 30/30/18 
f 29/29/17 31/31/17 32/32/17 
f 31/31/17 29/29/17 24/24/14 
f 23/23/13 27/27/16 28/28/16 
f 27/27/16 23/23/13 33/33/16 
f 32/32/17 31/31/17 34/34/18 
f 31/31/17 12/12/7 34/34/18 
f 26/26/16 35/35/19 11/11/6 
f 36/36/17 34/34/18 12/12/7 
f 35/35/19 12/12/7 11/11/6 
f 12/12/7 35/35/19 37/37/20 
f 37/37/20 36/36/17 12/12/7 
f 38/38/15 33/33/16 23/23/13 
f 39/39/21 38/38/15 23/23/13 
f 30/30/18 40/40/22 24/24/14 
f 24/24/14 39/39/21 23/23/13 
f 39/39/21 24/24/14 40/40/22 
f 41/41/23 42/42/23 43/43/24 
f 43/43/24 42/42/23 44/44/24 
f 44/44/24 45/45/25 43/43/24 
f 45/45/25 44/44/24 46/46/25 
f 46/46/25 47/47/26 45/45/25 
f 47/47/26 46/46/25 48/48/26 
f 47/47/26 48/48/26 49/49/27 
f 49/49/27 48/48/26 50/50/27 
f 51/51/28 50/50/27 52/52/29 
f 50/50/27 51/51/28 49/49/27 
f 53/53/30 54/54/31 55/55/31 
f 53/53/30 55/55/31 56/56/30 
f 57/57/32 55/55/31 54/54/31 
f 55/55/31 57/57/32 58/58/32 
f 59/59/33 60/60/33 57/57/32 
f 57/57/32 60/60/33 58/58/32 
f 61/61/34 62/62/34 59/59/33 
f 59/59/33 62/62/34 60/60/33 
f 63/63/35 62/62/34 61/61/34 
f 62/62/34 63/63/35 64/64/36 
f 65/65/37 66/66/38 51/51/28 
f 51/51/28 67/67/39 68/68/39 
f 67/67/39 51/51/28 66/66/38 
f 69/69/40 70/70/41 64/64/36 
f 71/71/42 70/70/41 72/72/42 
f 70/70/41 71/71/42 64/64/36 
f 63/63/35 67/67/39 73/73/43 
f 67/67/39 63/63/35 68/68/39 
f 71/71/42 72/72/42 74/74/44 
f 74/74/44 52/52/29 71/71/42 
f 51/51/28 75/75/45 65/65/37 
f 52/52/29 74/74/44 76/76/46 
f 52/52/29 75/75/45 51/51/28 
f 75/75/45 52/52/29 77/77/47 
f 52/52/29 76/76/46 77/77/47 
f 63/63/35 73/73/43 78/78/48 
f 63/63/35 78/78/48 79/79/49 
f 64/64/36 80/80/50 69/69/40 
f 79/79/49 64/64/36 63/63/35 
f 64/64/36 79/79/49 80/80/50 
f 42/81/51 41/82/51 3/3/2 
f 3/3/2 2/2/2 42/81/51 
f 43/83/52 3/84/52 41/85/52 
f 3/84/52 43/83/52 1/86/52 
f 2/87/53 4/88/53 44/89/53 
f 2/87/53 44/89/53 42/90/53 
f 45/91/52 1/86/52 43/83/52 
f 1/86/52 45/91/52 5/92/52 
f 46/93/53 4/88/53 6/94/53 
f 4/88/53 46/93/53 44/89/53 
f 45/91/52 7/95/52 5/92/52 
f 7/95/52 45/91/52 47/96/52 
f 46/93/53 8/97/53 48/98/53 
f 8/97/53 46/93/53 6/94/53 
f 7/95/52 49/99/54 9/100/54 
f 49/99/54 7/95/52 47/96/52 
f 8/97/53 50/101/55 48/98/53 
f 50/101/55 8/97/53 10/102/55 
f 50/101/55 12/103/55 52/104/55 
f 12/103/55 50/101/55 10/102/55 
f 9/100/54 49/99/54 11/105/54 
f 51/106/54 11/105/54 49/99/54 
f 53/107/51 16/16/9 14/14/9 
f 16/16/9 53/107/51 56/108/51 
f 55/109/53 16/110/53 56/111/53 
f 16/110/53 55/109/53 15/112/53 
f 14/113/52 13/114/52 54/115/52 
f 14/113/52 54/115/52 53/116/52 
f 57/117/52 13/114/52 17/118/52 
f 13/114/52 57/117/52 54/115/52 
f 58/119/53 15/112/53 55/109/53 
f 15/112/53 58/119/53 18/120/53 
f 58/119/53 19/121/53 18/120/53 
f 19/121/53 58/119/53 60/122/53 
f 57/117/52 20/123/52 59/124/52 
f 20/123/52 57/117/52 17/118/52 
f 19/121/53 62/125/56 21/126/56 
f 62/125/56 19/121/53 60/122/53 
f 20/123/52 61/127/57 59/124/52 
f 61/127/57 20/123/52 22/128/57 
f 61/127/57 23/129/57 63/130/57 
f 23/129/57 61/127/57 22/128/57 
f 21/126/56 62/125/56 24/131/56 
f 64/132/56 24/131/56 62/125/56 
f 51/106/54 68/133/57 28/134/57 
f 28/134/57 11/105/54 51/106/54 
f 64/132/56 71/135/55 31/136/55 
f 31/136/55 24/131/56 64/132/56 
f 63/130/57 28/134/57 68/133/57 
f 28/134/57 63/130/57 23/129/57 
f 52/104/55 31/136/55 71/135/55 
f 31/136/55 52/104/55 12/103/55 
f 81/137/58 82/138/59 83/139/60 
f 82/138/59 81/137/58 84/140/61 
f 85/141/62 86/142/63 27/143/64 
f 27/143/64 86/142/63 25/144/65 
f 87/145/66 86/142/63 85/141/62 
f 86/142/63 87/145/66 88/146/67 
f 89/147/68 83/139/60 90/148/69 
f 83/139/60 89/147/68 81/137/58 
f 86/142/63 91/149/70 25/144/65 
f 26/150/71 25/144/65 91/149/70 
f 91/149/70 88/146/67 92/151/72 
f 88/146/67 91/149/70 86/142/63 
f 90/148/69 93/152/73 89/147/68 
f 89/147/68 93/152/73 94/153/74 
f 91/149/70 35/154/75 26/150/71 
f 35/154/75 91/149/70 95/155/76 
f 92/151/72 95/155/76 91/149/70 
f 95/155/76 92/151/72 96/156/77 
f 93/152/73 97/157/78 94/153/74 
f 94/153/74 97/157/78 98/158/79 
f 99/159/80 35/154/75 95/155/76 
f 35/154/75 99/159/80 37/160/81 
f 96/156/77 99/159/80 95/155/76 
f 99/159/80 96/156/77 100/161/82 
f 97/157/78 101/162/83 98/158/79 
f 98/158/79 101/162/83 102/163/84 
f 99/159/80 103/164/85 37/160/81 
f 36/165/86 37/160/81 103/164/85 
f 100/161/82 103/164/85 99/159/80 
f 103/164/85 100/161/82 104/166/87 
f 105/167/88 101/162/83 106/168/89 
f 101/162/83 105/167/88 102/163/84 
f 103/164/85 34/169/90 36/165/86 
f 34/169/90 103/164/85 107/170/91 
f 107/170/91 104/166/87 108/171/92 
f 104/166/87 107/170/91 103/164/85 
f 109/172/93 106/168/89 110/173/94 
f 106/168/89 109/172/93 105/167/88 
f 107/170/91 32/174/95 34/169/90 
f 32/174/95 107/170/91 111/175/96 
f 111/175/96 108/171/92 112/176/97 
f 108/171/92 111/175/96 107/170/91 
f 113/177/98 114/178/99 109/172/93 
f 113/177/98 109/172/93 110/173/94 
f 111/175/96 115/179/100 32/174/95 
f 32/174/95 115/179/100 29/180/101 
f 116/181/102 111/175/96 112/176/97 
f 111/175/96 116/181/102 115/179/100 
f 117/182/103 118/183/104 114/178/99 
f 117/182/103 114/178/99 113/177/98 
f 115/179/100 119/184/105 29/180/101 
f 30/185/106 29/180/101 119/184/105 
f 120/186/107 115/179/100 116/181/102 
f 119/184/105 115/179/100 120/186/107 
f 121/187/108 122/188/109 118/183/104 
f 121/187/108 118/183/104 117/182/103 
f 40/189/110 119/184/105 123/190/111 
f 119/184/105 40/189/110 30/185/106 
f 120/186/107 124/191/112 119/184/105 
f 123/190/111 119/184/105 124/191/112 
f 125/192/113 126/193/114 122/188/109 
f 125/192/113 122/188/109 121/187/108 
f 39/194/115 123/190/111 127/195/116 
f 123/190/111 39/194/115 40/189/110 
f 127/195/116 123/190/111 128/196/117 
f 128/196/117 123/190/111 124/191/112 
f 129/197/118 130/198/119 126/193/114 
f 129/197/118 126/193/114 125/192/113 
f 38/199/120 39/194/115 131/200/121 
f 131/200/121 39/194/115 127/195/116 
f 127/195/116 132/201/122 131/200/121 
f 132/201/122 127/195/116 128/196/117 
f 133/202/123 129/197/118 134/203/124 
f 129/197/118 133/202/123 130/198/119 
f 131/200/121 33/204/125 38/199/120 
f 33/204/125 131/200/121 135/205/126 
f 136/206/127 131/200/121 132/201/122 
f 131/200/121 136/206/127 135/205/126 
f 84/207/61 134/203/124 82/208/59 
f 134/203/124 84/207/61 133/202/123 
f 135/205/126 27/209/64 33/204/125 
f 27/209/64 135/205/126 85/210/62 
f 136/206/127 87/211/66 135/205/126 
f 85/210/62 135/205/126 87/211/66 
f 137/212/128 82/138/59 138/213/129 
f 82/138/59 137/212/128 83/139/60 
f 139/214/130 83/139/60 137/212/128 
f 83/139/60 139/214/130 90/148/69 
f 90/148/69 140/215/131 93/152/73 
f 140/215/131 90/148/69 139/214/130 
f 140/215/131 97/157/78 93/152/73 
f 97/157/78 140/215/131 141/216/132 
f 141/216/132 142/217/133 101/162/83 
f 141/216/132 101/162/83 97/157/78 
f 143/218/134 101/162/83 142/217/133 
f 101/162/83 143/218/134 106/168/89 
f 106/168/89 144/219/135 110/173/94 
f 144/219/135 106/168/89 143/218/134 
f 110/173/94 145/220/136 113/177/98 
f 145/220/136 110/173/94 144/219/135 
f 145/220/136 146/221/137 117/182/103 
f 145/220/136 117/182/103 113/177/98 
f 146/221/137 147/222/138 121/187/108 
f 146/221/137 121/187/108 117/182/103 
f 147/222/138 148/223/139 125/192/113 
f 125/192/113 121/187/108 147/222/138 
f 125/192/113 149/224/140 129/197/118 
f 149/224/140 125/192/113 148/223/139 
f 129/197/118 150/225/141 134/203/124 
f 150/225/141 129/197/118 149/224/140 
f 138/226/129 134/203/124 150/225/141 
f 134/203/124 138/226/129 82/208/59 
f 67/227/142 66/228/143 137/212/128 
f 67/227/142 137/212/128 138/213/129 
f 65/229/144 137/212/128 66/228/143 
f 137/212/128 65/229/144 139/214/130 
f 65/229/144 140/215/131 139/214/130 
f 140/215/131 65/229/144 75/230/145 
f 75/230/145 141/216/132 140/215/131 
f 141/216/132 75/230/145 77/231/146 
f 76/232/147 141/216/132 77/231/146 
f 141/216/132 76/232/147 142/217/133 
f 76/232/147 74/233/148 143/218/134 
f 76/232/147 143/218/134 142/217/133 
f 72/234/149 143/218/134 74/233/148 
f 143/218/134 72/234/149 144/219/135 
f 72/234/149 145/220/136 144/219/135 
f 145/220/136 72/234/149 70/235/150 
f 69/236/151 145/220/136 70/235/150 
f 145/220/136 69/236/151 146/221/137 
f 69/236/151 80/237/152 147/222/138 
f 69/236/151 147/222/138 146/221/137 
f 79/238/153 147/222/138 80/237/152 
f 147/222/138 79/238/153 148/223/139 
f 148/223/139 78/239/154 149/224/140 
f 78/239/154 148/223/139 79/238/153 
f 78/239/154 150/225/141 149/224/140 
f 150/225/141 78/239/154 73/240/155 
f 67/241/142 150/225/141 73/240/155 
f 150/225/141 67/241/142 138/226/129 
f 87/145/66 81/137/58 88/146/67 
f 81/137/58 87/145/66 84/140/61 
f 92/151/72 81/137/58 89/147/68 
f 81/137/58 92/151/72 88/146/67 
f 96/156/77 89/147/68 94/153/74 
f 89/147/68 96/156/77 92/151/72 
f 94/153/74 98/158/79 96/156/77 
f 96/156/77 98/158/79 100/161/82 
f 100/161/82 102/163/84 104/166/87 
f 102/163/84 100/161/82 98/158/79 
f 108/171/92 104/166/87 105/167/88 
f 105/167/88 104/166/87 102/163/84 
f 112/176/97 105/167/88 109/172/93 
f 105/167/88 112/176/97 108/171/92 
f 116/181/102 112/176/97 114/178/99 
f 109/172/93 114/178/99 112/176/97 
f 116/181/102 118/183/104 120/186/107 
f 114/178/99 118/183/104 116/181/102 
f 120/186/107 122/188/109 124/191/112 
f 122/188/109 120/186/107 118/183/104 
f 128/196/117 124/191/112 126/193/114 
f 126/193/114 124/191/112 122/188/109 
f 132/201/122 126/193/114 130/198/119 
f 126/193/114 132/201/122 128/196/117 
f 130/198/119 136/206/127 132/201/122 
f 136/206/127 130/198/119 133/202/123 
f 87/211/66 133/202/123 84/207/61 
f 133/202/123 87/211/66 136/206/127 
# 300 faces

